<svg width="1167" height="239" viewBox="0 0 1167 239" fill="none" xmlns="http://www.w3.org/2000/svg">
<path d="M0 176.86H4.6494V167.3H9.2988V162.52H18.5976V157.74H23.247V152.96H32.5458V143.4H37.1952V47.8H32.5458V43.02H27.8964V38.24H23.247V33.46H27.8964V28.68H37.1952V33.46H41.8446V28.68H60.4422V23.9H74.3904V19.12H83.6892V14.34H92.9881V9.56H102.287V14.34H106.936V81.26H111.586V76.48H116.235V71.7H120.884V62.14H125.534V57.36H130.183V47.8H125.534V43.02H120.884V38.24H116.235V33.46H120.884V23.9H125.534V19.12H130.183V14.34H134.833V19.12H144.131V23.9H148.781V28.68H153.43V38.24H148.781V47.8H144.131V52.58H139.482V57.36H134.833V62.14H130.183V76.48H134.833V90.82H139.482V100.38H144.131V114.72H148.781V124.28H153.43V138.62H158.08V152.96H162.729V172.08H158.08V176.86H153.43V181.64H148.781V186.42H139.482V172.08H134.833V157.74H130.183V148.18H125.534V133.84H120.884V119.5H116.235V109.94H111.586V105.16H106.936V114.72H102.287V119.5H97.6374V129.06H92.9881V133.84H88.3386V143.4H79.0398V124.28H83.6892V28.68H69.741V38.24H65.0916V148.18H88.3386V152.96H97.6374V148.18H102.287V143.4H106.936V138.62H111.586V133.84H116.235V143.4H111.586V152.96H106.936V162.52H102.287V172.08H97.6374V176.86H92.9881V181.64H88.3386V186.42H79.0398V181.64H69.741V176.86H55.7928V172.08H32.5458V176.86H13.9482V181.64H9.2988V186.42H0V176.86Z" fill="#222C41"/>
<path d="M181.309 181.64H176.659V172.08H172.01V167.3H167.36V157.74H172.01V152.96H176.659V105.16H172.01V100.38H167.36V90.82H172.01V81.26H176.659V76.48H185.958V81.26H190.607V86.04H195.257V90.82H199.906V95.6H204.556V100.38H209.205V95.6H213.854V90.82H218.504V86.04H223.153V81.26H227.803V76.48H237.101V81.26H246.4V90.82H255.699V95.6H260.348V105.16H255.699V109.94H251.05V157.74H255.699V162.52H260.348V167.3H255.699V172.08H251.05V176.86H246.4V186.42H237.101V181.64H232.452V176.86H227.803V172.08H223.153V167.3H218.504V162.52H223.153V152.96H227.803V114.72H223.153V109.94H218.504V105.16H209.205V109.94H204.556V124.28H199.906V157.74H204.556V162.52H209.205V167.3H204.556V172.08H199.906V176.86H195.257V181.64H190.607V186.42H181.309V181.64Z" fill="#222C41"/>
<path d="M288.299 57.36H279V47.8H283.65V38.24H288.299V33.46H297.598V38.24H306.897V43.02H311.546V57.36H306.897V66.92H297.598V62.14H288.299V57.36ZM297.598 76.48V81.26H306.897V86.04H316.196V95.6H311.546V100.38H306.897V105.16H302.247V152.96H306.897V162.52H311.546V167.3H316.196V172.08H311.546V176.86H306.897V186.42H297.598V181.64H288.299V176.86H274.351V172.08H269.702V167.3H274.351V157.74H279V105.16H274.351V95.6H269.702V90.82H274.351V86.04H279V81.26H283.65V76.48H297.598Z" fill="#222C41"/>
<path d="M413.851 86.04V90.82H423.15V114.72H418.501V109.94H409.202V181.64H413.851V215.1H404.552V219.88H399.903V224.66H395.254V229.44H385.955V234.22H376.656V239H362.708V234.22H358.058V229.44H348.76V224.66H344.11V219.88H339.461V215.1H334.811V210.32H330.162V200.76H334.811V195.98H339.461V191.2H353.409V195.98H358.058V205.54H362.708V210.32H367.357V215.1H372.007V219.88H385.955V210.32H390.604V195.98H385.955V172.08H381.305V176.86H372.007V181.64H362.708V186.42H353.409V181.64H344.11V176.86H334.811V172.08H330.162V167.3H334.811V162.52H339.461V129.06H334.811V109.94H330.162V105.16H325.513V95.6H339.461V90.82H348.76V86.04H353.409V81.26H358.058V76.48H381.305V81.26H390.604V86.04H413.851ZM385.955 162.52V109.94H381.305V100.38H376.656V95.6H367.357V100.38H362.708V105.16H358.058V114.72H362.708V162.52H367.357V167.3H381.305V162.52H385.955Z" fill="#222C41"/>
<path d="M455.678 181.64H446.379V176.86H441.73V172.08H437.08V167.3H441.73V162.52H446.379V109.94H441.73V105.16H437.08V100.38H432.431V95.6H437.08V90.82H441.73V86.04H446.379V62.14H451.028V43.02H446.379V28.68H441.73V19.12H446.379V14.34H451.028V19.12H455.678V28.68H460.327V23.9H464.977V14.34H469.626V9.56H474.275V38.24H469.626V95.6H474.275V90.82H478.925V86.04H483.574V81.26H492.873V76.48H511.471V81.26H516.12V86.04H520.769V90.82H525.419V95.6H520.769V100.38H516.12V157.74H520.769V162.52H530.068V167.3H525.419V172.08H520.769V176.86H516.12V181.64H511.471V186.42H506.821V200.76H502.172V215.1H497.522V229.44H492.873V234.22H488.224V205.54H492.873V105.16H488.224V95.6H478.925V100.38H474.275V105.16H469.626V162.52H474.275V167.3H478.925V176.86H474.275V181.64H464.977V186.42H455.678V181.64Z" fill="#222C41"/>
<path d="M548.648 167.3V162.52H553.297V109.94H548.648V105.16H539.349V95.6H543.998V90.82H553.297V81.26H557.946V71.7H562.596V57.36H567.245V47.8H571.895V86.04H590.492V90.82H595.142V100.38H590.492V105.16H576.544V109.94H571.895V162.52H576.544V167.3H585.843V181.64H581.193V186.42H562.596V181.64H553.297V176.86H543.998V167.3H548.648Z" fill="#222C41"/>
<path d="M711.322 176.86H706.673V172.08H702.023V167.3H697.374V162.52H692.725V157.74H688.075V148.18H683.426V133.84H678.776V100.38H683.426V86.04H688.075V76.48H692.725V71.7H697.374V66.92H702.023V62.14H711.322V57.36H720.621V52.58H739.219V43.02H734.569V38.24H725.27V33.46H715.972V38.24H706.673V43.02H702.023V47.8H692.725V43.02H697.374V38.24H702.023V33.46H706.673V28.68H711.322V23.9H720.621V19.12H729.92V14.34H743.868V19.12H748.517V23.9H753.167V28.68H762.466V33.46H767.115V38.24H771.764V33.46H776.414V28.68H781.063V23.9H790.362V19.12H795.011V14.34H799.661V9.56H813.609V14.34H822.908V19.12H836.856V23.9H846.155V19.12H850.804V14.34H864.753V19.12H874.051V23.9H892.649V33.46H883.35V43.02H878.701V52.58H874.051V71.7H869.402V105.16H874.051V124.28H878.701V133.84H883.35V148.18H888V157.74H892.649V162.52H888V172.08H883.35V181.64H869.402V172.08H864.753V167.3H855.454V157.74H860.103V148.18H855.454V138.62H850.804V109.94H846.155V105.16H841.506V109.94H827.557V148.18H832.207V162.52H836.856V167.3H841.506V172.08H850.804V176.86H846.155V181.64H841.506V186.42H827.557V181.64H818.259V176.86H813.609V172.08H808.96V162.52H799.661V167.3H795.011V172.08H785.713V176.86H781.063V181.64H767.115V186.42H725.27V181.64H711.322V176.86ZM753.167 172.08H767.115V167.3H781.063V162.52H790.362V157.74H799.661V114.72H781.063V109.94H776.414V114.72H771.764V133.84H767.115V138.62H757.816V143.4H748.517V148.18H743.868V152.96H739.219V138.62H743.868V57.36H734.569V62.14H725.27V66.92H720.621V76.48H715.972V81.26H711.322V90.82H706.673V133.84H711.322V143.4H715.972V148.18H720.621V152.96H725.27V157.74H734.569V162.52H739.219V167.3H753.167V172.08ZM795.011 33.46H781.063V38.24H776.414V47.8H771.764V76.48H776.414V81.26H785.713V76.48H804.31V57.36H808.96V47.8H813.609V38.24H795.011V33.46ZM855.454 33.46H841.506V38.24H836.856V43.02H832.207V62.14H827.557V81.26H832.207V76.48H850.804V62.14H855.454V52.58H860.103V47.8H864.753V38.24H855.454V33.46ZM785.713 86.04H776.414V90.82H771.764V100.38H776.414V105.16H795.011V100.38H799.661V90.82H785.713V86.04ZM846.155 86.04H832.207V90.82H827.557V105.16H832.207V100.38H846.155V86.04ZM850.804 167.3H855.454V172.08H850.804V167.3Z" fill="#222C41"/>
<path d="M953.146 81.26H957.795V86.04H962.444V90.82H967.094V95.6H976.393V100.38H981.042V105.16H976.393V114.72H971.743V162.52H976.393V167.3H981.042V176.86H976.393V181.64H971.743V186.42H957.795V181.64H953.146V176.86H948.496V172.08H939.197V176.86H934.548V181.64H925.249V186.42H915.95V181.64H911.301V176.86H906.652V143.4H911.301V133.84H906.652V129.06H902.002V124.28H897.353V119.5H902.002V114.72H906.652V119.5H929.899V114.72H943.847V100.38H939.197V95.6H934.548V90.82H929.899V95.6H925.249V100.38H920.6V105.16H925.249V109.94H911.301V100.38H915.95V90.82H920.6V86.04H925.249V81.26H934.548V76.48H953.146V81.26ZM948.496 124.28H934.548V129.06H929.899V162.52H934.548V167.3H943.847V157.74H948.496V124.28Z" fill="#222C41"/>
<path d="M1036.78 167.3H1041.43V176.86H1036.78V186.42H1018.18V181.64H1004.23V176.86H999.585V167.3H1004.23V105.16H999.585V100.38H994.936V95.6H990.286V86.04H994.936V81.26H999.585V76.48H1008.88V81.26H1013.53V86.04H1022.83V90.82H1027.48V95.6H1032.13V100.38H1027.48V157.74H1032.13V162.52H1036.78V167.3ZM1032.13 90.82H1036.78V86.04H1041.43V81.26H1046.08V76.48H1055.38V81.26H1060.03V86.04H1064.68V90.82H1069.33V95.6H1064.68V100.38H1060.03V105.16H1055.38V109.94H1046.08V105.16H1041.43V100.38H1036.78V95.6H1032.13V90.82Z" fill="#222C41"/>
<path d="M1087.96 167.3H1078.66V172.08H1074.01V176.86H1069.36V167.3H1074.01V162.52H1078.66V157.74H1083.31V152.96H1087.96V148.18H1106.56V152.96H1111.21V157.74H1115.86V162.52H1120.51V167.3H1125.16V133.84H1111.21V138.62H1101.91V143.4H1083.31V138.62H1074.01V129.06H1078.66V124.28H1083.31V105.16H1078.66V95.6H1074.01V90.82H1078.66V86.04H1097.26V81.26H1111.21V76.48H1129.8V81.26H1134.45V86.04H1139.1V90.82H1143.75V95.6H1157.7V90.82H1162.35V100.38H1153.05V105.16H1143.75V109.94H1120.51V105.16H1115.86V100.38H1111.21V90.82H1106.56V109.94H1101.91V124.28H1106.56V129.06H1115.86V124.28H1120.51V119.5H1129.8V114.72H1148.4V119.5H1157.7V124.28H1162.35V129.06H1157.7V133.84H1153.05V138.62H1148.4V162.52H1153.05V167.3H1157.7V176.86H1139.1V181.64H1120.51V186.42H1106.56V181.64H1101.91V176.86H1097.26V172.08H1087.96V167.3Z" fill="#222C41"/>
<path d="M4.6494 167.3H9.2988L9.29881 157.74H13.9482V152.96H23.247V148.18H27.8964V143.4H37.1952V133.84H41.8446V38.24H37.1952V33.46L32.5458 33.46V28.68L27.8964 28.68L27.8964 23.9H32.5458V19.12H41.8446V23.9H46.494V19.12H65.0916V14.34H79.0398V9.56H88.3386V4.78H97.6375V2.27928e-06H106.936V4.78H111.586V71.7L116.235 71.7V66.92H120.884V62.14H125.534V52.58H130.183V47.8L134.833 47.8V38.24H130.183V33.46H125.534V28.68H120.884V23.9H125.534V14.34L130.183 14.34V9.56H134.833V4.78H139.482V9.56H148.781V14.34H153.43V19.12H158.08V28.68L153.43 28.68V38.24H148.781V43.02H144.131L144.131 47.8L139.482 47.8L139.482 52.58L134.833 52.58V66.92H139.482V81.26H144.131V90.82H148.781V105.16H153.43V114.72H158.08V129.06H162.729V143.4H167.378V162.52H162.729V167.3H158.08V172.08H153.43V176.86H144.131V162.52H139.482V148.18H134.833V138.62H130.183V124.28H125.534V109.94H120.884V100.38H116.235V95.6H111.586V105.16H106.936V109.94H102.287L102.287 119.5H97.6374L97.6375 124.28H92.9881V133.84H83.6892V114.72H88.3386V19.12L74.3904 19.12V28.68L69.741 28.68L69.741 138.62H92.9881V143.4H102.287L102.287 138.62H106.936V133.84H111.586V129.06H116.235V124.28H120.884V133.84H116.235V143.4H111.586V152.96H106.936V162.52H102.287L102.287 167.3H97.6375L97.6374 172.08H92.9881V176.86H83.6892V172.08H74.3904V167.3H60.4422V162.52H37.1952V167.3H18.5976V172.08H13.9482L13.9482 176.86H4.6494V167.3Z" fill="white"/>
<path d="M185.958 172.08H181.309V162.52H176.659V157.74H172.01V148.18H176.659V143.4H181.309V95.6H176.659V90.82H172.01V81.26H176.659V71.7H181.309V66.92H190.607V71.7H195.257V76.48H199.906V81.26H204.556V86.04H209.205V90.82H213.854V86.04H218.504V81.26H223.153V76.48H227.803V71.7H232.452V66.92H241.751V71.7H251.05V81.26H260.348V86.04H264.998V95.6L260.348 95.6V100.38H255.699V148.18H260.348V152.96H264.998V157.74H260.348V162.52H255.699V167.3H251.05V176.86H241.751V172.08H237.101V167.3H232.452V162.52H227.803V157.74H223.153V152.96H227.803V143.4H232.452V105.16H227.803V100.38H223.153V95.6L213.854 95.6V100.38H209.205V114.72H204.556V148.18H209.205V152.96H213.854V157.74H209.205V162.52H204.556V167.3H199.906V172.08H195.257V176.86H185.958V172.08Z" fill="white"/>
<path d="M292.949 47.8L283.65 47.8V38.24H288.299V28.68H292.949V23.9H302.247V28.68H311.546V33.46H316.196V47.8H311.546V57.36L302.247 57.36V52.58H292.949V47.8ZM302.247 66.92V71.7H311.546V76.48H320.845V86.04H316.196V90.82H311.546V95.6L306.897 95.6V143.4H311.546V152.96H316.196V157.74H320.845V162.52H316.196V167.3H311.546V176.86H302.247V172.08H292.949V167.3H279V162.52H274.351V157.74H279V148.18H283.65V95.6H279V86.04H274.351V81.26H279V76.48H283.65V71.7H288.299V66.92H302.247Z" fill="white"/>
<path d="M418.501 76.48V81.26H427.8V105.16H423.15V100.38H413.851V172.08H418.501V205.54H409.202V210.32H404.552V215.1H399.903V219.88H390.604V224.66H381.305V229.44H367.357V224.66H362.708V219.88H353.409V215.1H348.76V210.32H344.11V205.54H339.461V200.76H334.811V191.2H339.461V186.42H344.11V181.64H358.058V186.42H362.708V195.98H367.357V200.76H372.007V205.54H376.656V210.32H390.604V200.76H395.254V186.42H390.604V162.52H385.955V167.3H376.656V172.08H367.357V176.86H358.058V172.08H348.76V167.3H339.461V162.52H334.811V157.74H339.461V152.96H344.11V119.5H339.461V100.38H334.811V95.6H330.162V86.04H344.11V81.26H353.409V76.48H358.058V71.7H362.708V66.92H385.955V71.7H395.254V76.48H418.501ZM390.604 152.96V100.38H385.955V90.82H381.305V86.04H372.007V90.82H367.357V95.6L362.708 95.6V105.16L367.357 105.16V152.96H372.007V157.74H385.955V152.96H390.604Z" fill="white"/>
<path d="M460.327 172.08H451.028V167.3H446.379V162.52H441.73V157.74H446.379V152.96H451.028V100.38H446.379V95.6H441.73V90.82H437.08V86.04H441.73V81.26H446.379V76.48H451.028V52.58H455.678V33.46H451.028V19.12H446.379V9.56H451.028V4.78H455.678V9.56H460.327V19.12H464.977V14.34H469.626V4.78H474.275V2.27928e-06H478.925V28.68H474.275V86.04H478.925V81.26H483.574V76.48H488.224V71.7H497.522V66.92H516.12V71.7H520.769V76.48H525.419V81.26H530.068V86.04H525.419V90.82H520.769V148.18H525.419V152.96H534.718V157.74H530.068V162.52H525.419V167.3H520.769V172.08H516.12V176.86H511.471V191.2H506.821V205.54H502.172V219.88H497.522V224.66H492.873V195.98H497.522V95.6H492.873V86.04H483.574V90.82H478.925V95.6H474.275V152.96H478.925V157.74H483.574V167.3H478.925V172.08H469.626V176.86H460.327V172.08Z" fill="white"/>
<path d="M553.297 157.74V152.96H557.946V100.38H553.297V95.6L543.998 95.6V86.04H548.648V81.26H557.946V71.7H562.596V62.14H567.245V47.8H571.895V38.24H576.544V76.48H595.142V81.26H599.791V90.82H595.142V95.6H581.193V100.38H576.544V152.96H581.193V157.74H590.492V172.08H585.843V176.86H567.245V172.08H557.946V167.3H548.648V157.74H553.297Z" fill="white"/>
<path d="M715.972 167.3H711.322V162.52H706.673V157.74H702.023V152.96H697.374V148.18H692.725V138.62H688.075V124.28H683.426V90.82H688.075V76.48H692.725V66.92H697.374V62.14L702.023 62.14V57.36H706.673V52.58H715.972V47.8H725.27V43.02H743.868V33.46H739.219V28.68H729.92V23.9L720.621 23.9V28.68L711.322 28.68V33.46L706.673 33.46V38.24H697.374V33.46L702.023 33.46V28.68L706.673 28.68V23.9L711.322 23.9V19.12H715.972V14.34H725.27V9.56H734.569V4.78H748.517V9.56H753.167V14.34H757.816V19.12H767.115V23.9H771.764V28.68L776.414 28.68V23.9L781.063 23.9V19.12H785.713V14.34L795.011 14.34V9.56L799.661 9.56V4.78H804.31V2.27928e-06H818.259V4.78H827.557V9.56H841.506V14.34L850.804 14.34V9.56H855.454V4.78H869.402V9.56H878.701V14.34H897.298V23.9H888V33.46L883.35 33.46V43.02H878.701V62.14H874.051V95.6H878.701V114.72H883.35V124.28H888V138.62H892.649V148.18H897.298V152.96H892.649V162.52H888V172.08H874.051V162.52H869.402V157.74H860.103V148.18H864.753V138.62H860.103V129.06H855.454V100.38H850.804V95.6H846.155V100.38H832.207V138.62H836.856V152.96H841.506V157.74H846.155V162.52H855.454V167.3H850.804V172.08H846.155V176.86H832.207V172.08H822.908V167.3H818.259V162.52H813.609V152.96H804.31V157.74H799.661V162.52H790.362V167.3H785.713V172.08H771.764V176.86H729.92V172.08H715.972V167.3ZM757.816 162.52H771.764V157.74H785.713V152.96H795.011V148.18H804.31V105.16H785.713V100.38H781.063V105.16L776.414 105.16V124.28H771.764V129.06H762.466V133.84H753.167V138.62H748.517V143.4H743.868V129.06H748.517V47.8H739.219V52.58L729.92 52.58V57.36H725.27V66.92H720.621V71.7H715.972V81.26H711.322V124.28H715.972V133.84H720.621V138.62H725.27V143.4H729.92V148.18H739.219V152.96H743.868V157.74H757.816V162.52ZM799.661 23.9H785.713V28.68L781.063 28.68V38.24H776.414V66.92H781.063V71.7H790.362V66.92H808.96V47.8H813.609V38.24L818.259 38.24V28.68H799.661V23.9ZM860.103 23.9L846.155 23.9V28.68H841.506V33.46L836.856 33.46V52.58H832.207V71.7H836.856V66.92H855.454V52.58H860.103V43.02H864.753V38.24L869.402 38.24V28.68H860.103V23.9ZM790.362 76.48H781.063V81.26H776.414V90.82H781.063V95.6H799.661V90.82H804.31V81.26H790.362V76.48ZM850.804 76.48H836.856V81.26H832.207V95.6H836.856V90.82H850.804V76.48ZM855.454 157.74H860.103V162.52H855.454V157.74Z" fill="white"/>
<path d="M957.795 71.7H962.444V76.48H967.094V81.26H971.743V86.04H981.042V90.82H985.691V95.6H981.042V105.16H976.393V152.96H981.042V157.74H985.691V167.3H981.042V172.08H976.393V176.86H962.444V172.08H957.795V167.3H953.146V162.52H943.847V167.3H939.197V172.08H929.899V176.86H920.6V172.08H915.95V167.3H911.301V133.84H915.95V124.28H911.301V119.5H906.652V114.72H902.002V109.94H906.652V105.16H911.301V109.94H934.548V105.16H948.496V90.82H943.847V86.04H939.197V81.26H934.548V86.04H929.899V90.82H925.249V95.6H929.899V100.38H915.95V90.82H920.6V81.26H925.249V76.48H929.899V71.7H939.197V66.92H957.795V71.7ZM953.146 114.72H939.197V119.5H934.548V152.96H939.197V157.74H948.496V148.18H953.146V114.72Z" fill="white"/>
<path d="M1041.43 157.74H1046.08V167.3H1041.43V176.86H1022.83V172.08H1008.88V167.3H1004.23V157.74H1008.88V95.6H1004.23V90.82H999.585V86.04H994.936V76.48H999.585V71.7H1004.23V66.92H1013.53V71.7H1018.18V76.48H1027.48V81.26H1032.13V86.04H1036.78V90.82H1032.13V148.18H1036.78V152.96H1041.43V157.74ZM1036.78 81.26H1041.43V76.48H1046.08V71.7H1050.73V66.92H1060.03V71.7H1064.68V76.48H1069.33V81.26H1073.98V86.04H1069.33V90.82H1064.68V95.6L1060.03 95.6V100.38H1050.73V95.6H1046.08V90.82H1041.43V86.04H1036.78V81.26Z" fill="white"/>
<path d="M1092.61 157.74H1083.31V162.52H1078.66V167.3H1074.01V157.74H1078.66V152.96H1083.31V148.18H1087.96V143.4H1092.61V138.62H1111.21V143.4H1115.86V148.18H1120.51V152.96H1125.16V157.74H1129.8V124.28H1115.86V129.06H1106.56V133.84H1087.96V129.06H1078.66V119.5H1083.31V114.72H1087.96V95.6H1083.31V86.04H1078.66V81.26H1083.31V76.48H1101.91V71.7H1115.86V66.92H1134.45V71.7H1139.1V76.48H1143.75V81.26H1148.4V86.04H1162.35V81.26H1167V90.82H1157.7V95.6L1148.4 95.6V100.38H1125.16V95.6H1120.51V90.82H1115.86V81.26H1111.21V100.38H1106.56V114.72H1111.21V119.5H1120.51V114.72H1125.16V109.94H1134.45V105.16L1153.05 105.16V109.94H1162.35V114.72H1167V119.5H1162.35V124.28H1157.7V129.06H1153.05V152.96H1157.7V157.74H1162.35V167.3H1143.75V172.08H1125.16V176.86H1111.21V172.08H1106.56V167.3H1101.91V162.52H1092.61V157.74Z" fill="white"/>
<path d="M4.6494 167.3H13.9482V176.86H4.6494V167.3Z" fill="#E3E3E3"/>
<path d="M41.8446 100.38H51.1434V109.94H41.8446V100.38Z" fill="#E3E3E3"/>
<path d="M37.1952 133.84H51.1434V162.52H37.1952V133.84Z" fill="#E3E3E3"/>
<path d="M9.29881 157.74H37.1952V167.3H9.2988L9.29881 157.74Z" fill="#E3E3E3"/>
<path d="M13.9482 152.96H37.1952V157.74H13.9482V152.96Z" fill="#E3E3E3"/>
<path d="M23.247 148.18H46.494V152.96H23.247V148.18Z" fill="#E3E3E3"/>
<path d="M27.8964 143.4H51.1434V148.18H27.8964V143.4Z" fill="#E3E3E3"/>
<path d="M13.9482 167.3H18.5976V172.08H13.9482L13.9482 167.3Z" fill="#E3E3E3"/>
<path d="M69.741 138.62H92.9881V167.3H69.741L69.741 138.62Z" fill="#E3E3E3"/>
<path d="M60.4422 162.52H102.287L102.287 167.3H60.4422V162.52Z" fill="#E3E3E3"/>
<path d="M74.3904 167.3H97.6375L97.6374 172.08H74.3904V167.3Z" fill="#E3E3E3"/>
<path d="M83.6892 172.08H92.9881V176.86H83.6892V172.08Z" fill="#E3E3E3"/>
<path d="M102.287 138.62H111.586V152.96H102.287L102.287 138.62Z" fill="#E3E3E3"/>
<path d="M92.9881 143.4H106.936V162.52H92.9881V143.4Z" fill="#E3E3E3"/>
<path d="M106.936 133.84H116.235V143.4H106.936V133.84Z" fill="#E3E3E3"/>
<path d="M111.586 129.06H120.884V133.84H111.586V129.06Z" fill="#E3E3E3"/>
<path d="M116.235 124.28H120.884V129.06H116.235V124.28Z" fill="#E3E3E3"/>
<path d="M41.8446 119.5H51.1434V162.52H41.8446V119.5Z" fill="#E3E3E3"/>
<path d="M46.494 114.72H69.741V162.52H46.494V114.72Z" fill="#E3E3E3"/>
<path d="M51.1434 109.94H60.4422V119.5H51.1434V109.94Z" fill="#E3E3E3"/>
<path d="M55.7928 105.16H69.741V114.72H55.7928V105.16Z" fill="#E3E3E3"/>
<path d="M60.4422 100.38H69.741V109.94H60.4422V100.38Z" fill="#E3E3E3"/>
<path d="M46.494 95.6H55.7928V105.16H46.494V95.6Z" fill="#E3E3E3"/>
<path d="M51.1434 90.82H60.4422V100.38H51.1434V90.82Z" fill="#E3E3E3"/>
<path d="M55.7928 86.04H65.0916V95.6H55.7928V86.04Z" fill="#E3E3E3"/>
<path d="M60.4422 81.26H69.741V90.82H60.4422V81.26Z" fill="#E3E3E3"/>
<path d="M88.3386 71.7H97.6375L97.6374 119.5H88.3386V71.7Z" fill="#E3E3E3"/>
<path d="M83.6892 114.72H92.9881V133.84H83.6892V114.72Z" fill="#E3E3E3"/>
<path d="M92.9881 119.5H97.6374L97.6375 124.28H92.9881V119.5Z" fill="#E3E3E3"/>
<path d="M111.586 71.7H139.482V95.6L111.586 95.6V71.7Z" fill="#E3E3E3"/>
<path d="M116.235 81.26H144.131L144.131 100.38H116.235V81.26Z" fill="#E3E3E3"/>
<path d="M120.884 90.82H148.781V109.94H120.884V90.82Z" fill="#E3E3E3"/>
<path d="M125.534 105.16H153.43V124.28H125.534V105.16Z" fill="#E3E3E3"/>
<path d="M130.183 114.72H158.08V138.62H130.183V114.72Z" fill="#E3E3E3"/>
<path d="M134.833 129.06H162.729V148.18H134.833V129.06Z" fill="#E3E3E3"/>
<path d="M139.482 143.4H167.378V162.52H139.482V143.4Z" fill="#E3E3E3"/>
<path d="M144.131 162.52H158.08V172.08H144.131L144.131 162.52Z" fill="#E3E3E3"/>
<path d="M158.08 162.52H162.729V167.3H158.08V162.52Z" fill="#E3E3E3"/>
<path d="M144.131 172.08H153.43V176.86H144.131L144.131 172.08Z" fill="#E3E3E3"/>
<path d="M116.235 66.92H125.534V71.7L116.235 71.7V66.92Z" fill="#E3E3E3"/>
<path d="M116.235 66.92H139.482V71.7L116.235 71.7V66.92Z" fill="#E3E3E3"/>
<path d="M120.884 62.14H134.833V66.92H120.884V62.14Z" fill="#E3E3E3"/>
<path d="M125.534 57.36H134.833V62.14H125.534V57.36Z" fill="#E3E3E3"/>
<path d="M125.534 52.58H130.183V57.36H125.534V52.58Z" fill="#E3E3E3"/>
<path d="M130.183 47.8L134.833 47.8V52.58H130.183V47.8Z" fill="#E3E3E3"/>
<path d="M88.3386 47.8H97.6375V57.36H88.3386V47.8Z" fill="#E3E3E3"/>
<path d="M181.327 109.94H190.626V119.5H181.327V109.94Z" fill="#E3E3E3"/>
<path d="M181.327 129.06H190.626V172.08H181.327V129.06Z" fill="#E3E3E3"/>
<path d="M185.976 124.28H195.275V176.86H185.976V124.28Z" fill="#E3E3E3"/>
<path d="M190.626 119.5H199.924V172.08H190.626V119.5Z" fill="#E3E3E3"/>
<path d="M195.275 114.72H204.574V167.3H195.275V114.72Z" fill="#E3E3E3"/>
<path d="M199.924 105.16H209.223V114.72H199.924V105.16Z" fill="#E3E3E3"/>
<path d="M185.976 105.16H195.275V114.72H185.976V105.16Z" fill="#E3E3E3"/>
<path d="M190.626 100.38H199.924V109.94H190.626V100.38Z" fill="#E3E3E3"/>
<path d="M172.028 148.18H209.223V157.74H172.028V148.18Z" fill="#E3E3E3"/>
<path d="M176.677 143.4H181.327V148.18H176.677V143.4Z" fill="#E3E3E3"/>
<path d="M176.677 157.74H181.327V162.52H176.677V157.74Z" fill="#E3E3E3"/>
<path d="M204.574 157.74H209.223V162.52H204.574V157.74Z" fill="#E3E3E3"/>
<path d="M209.223 152.96H213.873V157.74H209.223V152.96Z" fill="#E3E3E3"/>
<path d="M172.028 86.04H176.677V90.82H172.028V86.04Z" fill="#E3E3E3"/>
<path d="M176.677 71.7H181.327V76.48H176.677V71.7Z" fill="#E3E3E3"/>
<path d="M181.327 66.92H190.626V71.7H181.327V66.92Z" fill="#E3E3E3"/>
<path d="M223.171 152.96H232.47V157.74H223.171V152.96Z" fill="#E3E3E3"/>
<path d="M227.821 143.4H232.47V162.52H227.821V143.4Z" fill="#E3E3E3"/>
<path d="M255.717 148.18H260.367V162.52H255.717V148.18Z" fill="#E3E3E3"/>
<path d="M260.367 152.96H265.016V157.74H260.367V152.96Z" fill="#E3E3E3"/>
<path d="M237.12 167.3H241.769V172.08H237.12V167.3Z" fill="#E3E3E3"/>
<path d="M232.47 105.16H241.769V109.94H232.47V105.16Z" fill="#E3E3E3"/>
<path d="M232.47 114.72H241.769V167.3H232.47V114.72Z" fill="#E3E3E3"/>
<path d="M241.769 109.94H251.068V176.86H241.769V109.94Z" fill="#E3E3E3"/>
<path d="M246.418 105.16H255.717V167.3H246.418V105.16Z" fill="#E3E3E3"/>
<path d="M292.912 109.94H302.211V172.08H292.912V109.94Z" fill="#E3E3E3"/>
<path d="M283.614 114.72H292.912V167.3H283.614V114.72Z" fill="#E3E3E3"/>
<path d="M302.211 105.16H306.861V176.86H302.211V105.16Z" fill="#E3E3E3"/>
<path d="M302.211 143.4H311.51V176.86H302.211V143.4Z" fill="#E3E3E3"/>
<path d="M311.51 152.96H316.159V167.3H311.51V152.96Z" fill="#E3E3E3"/>
<path d="M278.964 148.18H283.614V167.3H278.964V148.18Z" fill="#E3E3E3"/>
<path d="M274.315 157.74H278.964V162.52H274.315V157.74Z" fill="#E3E3E3"/>
<path d="M316.159 157.74H320.809V162.52H316.159V157.74Z" fill="#E3E3E3"/>
<path d="M283.614 100.38H288.263V109.94H283.614V100.38Z" fill="#E3E3E3"/>
<path d="M288.263 95.6H292.912V105.16H288.263V95.6Z" fill="#E3E3E3"/>
<path d="M283.614 43.02H288.263V47.8H283.614V43.02Z" fill="#E3E3E3"/>
<path d="M283.614 38.24H288.263V43.02H283.614V38.24Z" fill="#E3E3E3"/>
<path d="M288.263 33.46H292.912V38.24H288.263V33.46Z" fill="#E3E3E3"/>
<path d="M288.263 28.68H292.912V33.46H288.263V28.68Z" fill="#E3E3E3"/>
<path d="M292.912 90.82H297.562V100.38H292.912V90.82Z" fill="#E3E3E3"/>
<path d="M297.562 86.04H302.211V95.6H297.562V86.04Z" fill="#E3E3E3"/>
<path d="M302.211 81.26H311.51V90.82H302.211V81.26Z" fill="#E3E3E3"/>
<path d="M306.861 76.48H320.809V86.04H306.861V76.48Z" fill="#E3E3E3"/>
<path d="M232.47 100.38H246.418V105.16H232.47V100.38Z" fill="#E3E3E3"/>
<path d="M237.12 95.6H251.068V100.38H237.12V95.6Z" fill="#E3E3E3"/>
<path d="M241.769 90.82H255.717V95.6H241.769V90.82Z" fill="#E3E3E3"/>
<path d="M246.418 86.04H260.367V90.82H246.418V86.04Z" fill="#E3E3E3"/>
<path d="M251.068 81.26H260.367V86.04H251.068V81.26Z" fill="#E3E3E3"/>
<path d="M195.275 95.6H204.574V105.16H195.275V95.6Z" fill="#E3E3E3"/>
<path d="M199.924 90.82H209.223V100.38H199.924V90.82Z" fill="#E3E3E3"/>
<path d="M339.406 109.94H348.705V119.5H339.406V109.94Z" fill="#E3E3E3"/>
<path d="M344.056 105.16H353.355V114.72H344.056V105.16Z" fill="#E3E3E3"/>
<path d="M344.056 105.16H353.355V114.72H344.056V105.16Z" fill="#E3E3E3"/>
<path d="M413.797 172.08H418.446V205.54H413.797V172.08Z" fill="#E3E3E3"/>
<path d="M390.55 200.76H395.199V210.32H390.55V200.76Z" fill="#E3E3E3"/>
<path d="M339.406 186.42H344.056V191.2H339.406V186.42Z" fill="#E3E3E3"/>
<path d="M339.406 200.76H344.056V205.54H339.406V200.76Z" fill="#E3E3E3"/>
<path d="M358.004 186.42H362.653V191.2H358.004V186.42Z" fill="#E3E3E3"/>
<path d="M362.653 195.98H367.303V200.76H362.653V195.98Z" fill="#E3E3E3"/>
<path d="M348.705 210.32H353.355V215.1H348.705V210.32Z" fill="#E3E3E3"/>
<path d="M371.952 205.54H376.602V210.32H371.952V205.54Z" fill="#E3E3E3"/>
<path d="M362.653 219.88H367.303V224.66H362.653V219.88Z" fill="#E3E3E3"/>
<path d="M381.251 219.88H390.55V224.66H381.251V219.88Z" fill="#E3E3E3"/>
<path d="M367.303 152.96H371.952V157.74H367.303V152.96Z" fill="#E3E3E3"/>
<path d="M385.9 152.96H390.55V162.52H385.9V152.96Z" fill="#E3E3E3"/>
<path d="M334.757 157.74H339.406V162.52H334.757V157.74Z" fill="#E3E3E3"/>
<path d="M339.406 152.96H344.056V167.3H339.406V152.96Z" fill="#E3E3E3"/>
<path d="M367.303 157.74H376.602V172.08H367.303V157.74Z" fill="#E3E3E3"/>
<path d="M367.303 157.74H385.9V167.3H367.303V157.74Z" fill="#E3E3E3"/>
<path d="M334.757 191.2H362.653V200.76H334.757V191.2Z" fill="#E3E3E3"/>
<path d="M344.056 181.64H358.004V210.32H344.056V181.64Z" fill="#E3E3E3"/>
<path d="M353.355 210.32H399.849V219.88H353.355V210.32Z" fill="#E3E3E3"/>
<path d="M353.355 200.76H371.952V210.32H353.355V200.76Z" fill="#E3E3E3"/>
<path d="M367.303 219.88H381.251V229.44H367.303V219.88Z" fill="#E3E3E3"/>
<path d="M348.705 100.38H358.004V109.94H348.705V100.38Z" fill="#E3E3E3"/>
<path d="M353.355 95.6H362.653V105.16H353.355V95.6Z" fill="#E3E3E3"/>
<path d="M446.343 76.48H455.641V86.04H446.343V76.48Z" fill="#E3E3E3"/>
<path d="M441.693 81.26H450.992V90.82H441.693V81.26Z" fill="#E3E3E3"/>
<path d="M450.992 100.38H460.291V172.08H450.992V100.38Z" fill="#E3E3E3"/>
<path d="M455.641 95.6H464.94V172.08H455.641V95.6Z" fill="#E3E3E3"/>
<path d="M460.291 90.82H469.59V176.86H460.291V90.82Z" fill="#E3E3E3"/>
<path d="M464.94 86.04H478.888V95.6H464.94V86.04Z" fill="#E3E3E3"/>
<path d="M469.59 86.04H474.239V152.96H469.59V86.04Z" fill="#E3E3E3"/>
<path d="M478.888 157.74H483.538V167.3H478.888V157.74Z" fill="#E3E3E3"/>
<path d="M446.343 152.96H450.992V167.3H446.343V152.96Z" fill="#E3E3E3"/>
<path d="M441.693 157.74H446.343V162.52H441.693V157.74Z" fill="#E3E3E3"/>
<path d="M478.888 86.04H483.538V90.82H478.888V86.04Z" fill="#E3E3E3"/>
<path d="M478.888 81.26H483.538V86.04H478.888V81.26Z" fill="#E3E3E3"/>
<path d="M483.538 76.48H488.187V81.26H483.538V76.48Z" fill="#E3E3E3"/>
<path d="M469.59 162.52H474.239V172.08H469.59V162.52Z" fill="#E3E3E3"/>
<path d="M469.59 152.96H478.888V172.08H469.59V152.96Z" fill="#E3E3E3"/>
<path d="M437.044 86.04H441.693V90.82H437.044V86.04Z" fill="#E3E3E3"/>
<path d="M450.992 71.7H460.291V81.26H450.992V71.7Z" fill="#E3E3E3"/>
<path d="M455.641 66.92H464.94V76.48H455.641V66.92Z" fill="#E3E3E3"/>
<path d="M460.291 62.14H469.59V71.7H460.291V62.14Z" fill="#E3E3E3"/>
<path d="M464.94 57.36H474.239V66.92H464.94V57.36Z" fill="#E3E3E3"/>
<path d="M567.227 95.6H576.526V105.16H567.227V95.6Z" fill="#E3E3E3"/>
<path d="M562.578 100.38H571.877V109.94H562.578V100.38Z" fill="#E3E3E3"/>
<path d="M683.462 90.82H692.761V100.38H683.462V90.82Z" fill="#E3E3E3"/>
<path d="M688.112 86.04H697.41V95.6H688.112V86.04Z" fill="#E3E3E3"/>
<path d="M692.761 81.26H702.06V90.82H692.761V81.26Z" fill="#E3E3E3"/>
<path d="M697.41 76.48H706.709V86.04H697.41V76.48Z" fill="#E3E3E3"/>
<path d="M702.06 71.7H711.359V81.26H702.06V71.7Z" fill="#E3E3E3"/>
<path d="M706.709 66.92H716.008V76.48H706.709V66.92Z" fill="#E3E3E3"/>
<path d="M683.462 114.72H692.761V124.28H683.462V114.72Z" fill="#E3E3E3"/>
<path d="M688.112 114.72H692.761V138.62H688.112V114.72Z" fill="#E3E3E3"/>
<path d="M688.112 114.72H711.359V138.62H688.112V114.72Z" fill="#E3E3E3"/>
<path d="M697.41 105.16H711.359V152.96H697.41V105.16Z" fill="#E3E3E3"/>
<path d="M692.761 124.28H716.008V148.18H692.761V124.28Z" fill="#E3E3E3"/>
<path d="M702.06 133.84H720.657V157.74H702.06V133.84Z" fill="#E3E3E3"/>
<path d="M706.709 138.62H725.307V162.52H706.709V138.62Z" fill="#E3E3E3"/>
<path d="M711.359 143.4H729.956V167.3H711.359V143.4Z" fill="#E3E3E3"/>
<path d="M716.008 148.18H739.255V172.08H716.008V148.18Z" fill="#E3E3E3"/>
<path d="M729.026 152.96H743.904V176.86H729.026V152.96Z" fill="#E3E3E3"/>
<path d="M711.359 143.4H729.956V167.3H711.359V143.4Z" fill="#E3E3E3"/>
<path d="M743.904 157.74H757.853V176.86H743.904V157.74Z" fill="#E3E3E3"/>
<path d="M757.853 162.52H771.801V176.86H757.853V162.52Z" fill="#E3E3E3"/>
<path d="M771.801 157.74H785.749V172.08H771.801V157.74Z" fill="#E3E3E3"/>
<path d="M785.749 152.96H799.697V162.52H785.749V152.96Z" fill="#E3E3E3"/>
<path d="M795.048 148.18H804.347V157.74H795.048V148.18Z" fill="#E3E3E3"/>
<path d="M785.749 162.52H790.398V167.3H785.749V162.52Z" fill="#E3E3E3"/>
<path d="M688.112 109.94H697.41V119.5H688.112V109.94Z" fill="#E3E3E3"/>
<path d="M692.761 105.16H702.06V114.72H692.761V105.16Z" fill="#E3E3E3"/>
<path d="M697.41 100.38H706.709V109.94H697.41V100.38Z" fill="#E3E3E3"/>
<path d="M702.06 95.6H711.359V105.16H702.06V95.6Z" fill="#E3E3E3"/>
<path d="M748.554 86.04H762.502V133.84H748.554V86.04Z" fill="#E3E3E3"/>
<path d="M753.203 81.26H762.502V90.82H753.203V81.26Z" fill="#E3E3E3"/>
<path d="M757.853 76.48H767.151V86.04H757.853V76.48Z" fill="#E3E3E3"/>
<path d="M762.502 124.28H771.801V129.06H762.502V124.28Z" fill="#E3E3E3"/>
<path d="M743.904 129.06H748.554V143.4H743.904V129.06Z" fill="#E3E3E3"/>
<path d="M748.554 133.84H753.203V138.62H748.554V133.84Z" fill="#E3E3E3"/>
<path d="M776.45 90.82H781.1V105.16H776.45V90.82Z" fill="#E3E3E3"/>
<path d="M790.398 66.92H832.243V81.26H790.398V66.92Z" fill="#E3E3E3"/>
<path d="M818.295 52.58H832.243V66.92H818.295V52.58Z" fill="#E3E3E3"/>
<path d="M832.243 47.8H836.892V52.58H832.243V47.8Z" fill="#E3E3E3"/>
<path d="M799.697 90.82H804.347V95.6H799.697V90.82Z" fill="#E3E3E3"/>
<path d="M850.841 95.6H855.49V100.38H850.841V95.6Z" fill="#E3E3E3"/>
<path d="M836.892 90.82H874.088V95.6H836.892V90.82Z" fill="#E3E3E3"/>
<path d="M850.841 66.92H874.088V90.82H850.841V66.92Z" fill="#E3E3E3"/>
<path d="M864.789 62.14H874.088V66.92H864.789V62.14Z" fill="#E3E3E3"/>
<path d="M869.438 57.36H878.737V62.14H869.438V57.36Z" fill="#E3E3E3"/>
<path d="M874.088 52.58H878.737V57.36H874.088V52.58Z" fill="#E3E3E3"/>
<path d="M832.243 71.7H836.892V81.26H832.243V71.7Z" fill="#E3E3E3"/>
<path d="M748.554 66.92H753.203V76.48H748.554V66.92Z" fill="#E3E3E3"/>
<path d="M753.203 62.14H757.853V71.7H753.203V62.14Z" fill="#E3E3E3"/>
<path d="M757.853 57.36H762.502V66.92H757.853V57.36Z" fill="#E3E3E3"/>
<path d="M762.502 52.58H767.151V62.14H762.502V52.58Z" fill="#E3E3E3"/>
<path d="M767.151 47.8H771.801V57.36H767.151V47.8Z" fill="#E3E3E3"/>
<path d="M771.801 43.02H776.45V52.58H771.801V43.02Z" fill="#E3E3E3"/>
<path d="M836.892 66.92H850.841V76.48H836.892V66.92Z" fill="#E3E3E3"/>
<path d="M781.1 71.7H790.398V76.48H781.1V71.7Z" fill="#E3E3E3"/>
<path d="M781.1 95.6H846.191V100.38H781.1V95.6Z" fill="#E3E3E3"/>
<path d="M785.749 100.38H832.243V105.16H785.749V100.38Z" fill="#E3E3E3"/>
<path d="M804.347 105.16H832.243V152.96H804.347V105.16Z" fill="#E3E3E3"/>
<path d="M813.645 138.62H836.892V162.52H813.645V138.62Z" fill="#E3E3E3"/>
<path d="M818.295 152.96H841.542V167.3H818.295V152.96Z" fill="#E3E3E3"/>
<path d="M822.944 157.74H846.191V172.08H822.944V157.74Z" fill="#E3E3E3"/>
<path d="M832.243 176.86H846.191V172.08H832.243V176.86Z" fill="#E3E3E3"/>
<path d="M846.191 167.3H855.49V162.52H846.191V167.3Z" fill="#E3E3E3"/>
<path d="M846.191 172.08H850.841V167.3H846.191V172.08Z" fill="#E3E3E3"/>
<path d="M855.49 162.52H860.139V157.74H855.49V162.52Z" fill="#E3E3E3"/>
<path d="M874.088 172.08H888.036V162.52H874.088V172.08Z" fill="#E3E3E3"/>
<path d="M869.438 162.52H892.685V148.18H869.438V162.52Z" fill="#E3E3E3"/>
<path d="M860.139 157.74H869.438V148.18H860.139V157.74Z" fill="#E3E3E3"/>
<path d="M892.685 152.96H897.335V148.18H892.685V152.96Z" fill="#E3E3E3"/>
<path d="M864.789 148.18H892.685V138.62H864.789V148.18Z" fill="#E3E3E3"/>
<path d="M860.139 138.62H888.036V129.06H860.139V138.62Z" fill="#E3E3E3"/>
<path d="M855.49 129.06H883.386V119.5H855.49V129.06Z" fill="#E3E3E3"/>
<path d="M883.386 129.06H888.036V124.28H883.386V129.06Z" fill="#E3E3E3"/>
<path d="M855.49 119.5H883.386V114.72H855.49V119.5Z" fill="#E3E3E3"/>
<path d="M855.49 114.72H878.737V95.6H855.49V114.72Z" fill="#E3E3E3"/>
<path d="M804.347 95.6H832.243V76.48H804.347V95.6Z" fill="#E3E3E3"/>
<path d="M808.996 57.36H818.295V66.92H808.996V57.36Z" fill="#E3E3E3"/>
<path d="M813.645 52.58H822.944V62.14H813.645V52.58Z" fill="#E3E3E3"/>
<path d="M818.295 47.8H827.594V57.36H818.295V47.8Z" fill="#E3E3E3"/>
<path d="M822.944 43.02H832.243V52.58H822.944V43.02Z" fill="#E3E3E3"/>
<path d="M827.594 38.24H836.892V47.8H827.594V38.24Z" fill="#E3E3E3"/>
<path d="M832.243 33.46H836.892V43.02H832.243V33.46Z" fill="#E3E3E3"/>
<path d="M855.49 57.36H864.789V66.92H855.49V57.36Z" fill="#E3E3E3"/>
<path d="M860.139 52.58H869.438V62.14H860.139V52.58Z" fill="#E3E3E3"/>
<path d="M864.789 47.8H874.088V57.36H864.789V47.8Z" fill="#E3E3E3"/>
<path d="M869.438 43.02H878.737V52.58H869.438V43.02Z" fill="#E3E3E3"/>
<path d="M874.088 38.24H883.386V47.8H874.088V38.24Z" fill="#E3E3E3"/>
<path d="M878.737 33.46H883.386V43.02H878.737V33.46Z" fill="#E3E3E3"/>
<path d="M911.283 133.84H920.582V167.3H911.283V133.84Z" fill="#E3E3E3"/>
<path d="M915.932 129.06H925.231V138.62H915.932V129.06Z" fill="#E3E3E3"/>
<path d="M920.582 124.28H929.88V176.86H920.582V124.28Z" fill="#E3E3E3"/>
<path d="M925.231 119.5H934.53V172.08H925.231V119.5Z" fill="#E3E3E3"/>
<path d="M929.88 152.96H939.179V172.08H929.88V152.96Z" fill="#E3E3E3"/>
<path d="M939.179 157.74H943.829V167.3H939.179V157.74Z" fill="#E3E3E3"/>
<path d="M915.932 167.3H920.582V172.08H915.932V167.3Z" fill="#E3E3E3"/>
<path d="M943.829 157.74H948.478V162.52H943.829V157.74Z" fill="#E3E3E3"/>
<path d="M948.478 148.18H981.024V162.52H948.478V148.18Z" fill="#E3E3E3"/>
<path d="M953.128 157.74H985.673V167.3H953.128V157.74Z" fill="#E3E3E3"/>
<path d="M962.426 167.3H976.375V176.86H962.426V167.3Z" fill="#E3E3E3"/>
<path d="M957.777 167.3H962.426V172.08H957.777V167.3Z" fill="#E3E3E3"/>
<path d="M976.375 167.3H981.024V172.08H976.375V167.3Z" fill="#E3E3E3"/>
<path d="M953.128 124.28H976.375V148.18H953.128V124.28Z" fill="#E3E3E3"/>
<path d="M962.426 119.5H976.375V124.28H962.426V119.5Z" fill="#E3E3E3"/>
<path d="M967.076 114.72H976.375V119.5H967.076V114.72Z" fill="#E3E3E3"/>
<path d="M971.725 109.94H976.375V114.72H971.725V109.94Z" fill="#E3E3E3"/>
<path d="M929.88 114.72H939.179V119.5H929.88V114.72Z" fill="#E3E3E3"/>
<path d="M953.128 114.72H962.426V124.28H953.128V114.72Z" fill="#E3E3E3"/>
<path d="M957.777 109.94H967.076V119.5H957.777V109.94Z" fill="#E3E3E3"/>
<path d="M962.426 105.16H971.725V114.72H962.426V105.16Z" fill="#E3E3E3"/>
<path d="M967.076 100.38H976.375V109.94H967.076V100.38Z" fill="#E3E3E3"/>
<path d="M971.725 95.6H981.024V105.16H971.725V95.6Z" fill="#E3E3E3"/>
<path d="M976.375 90.82H981.024V100.38H976.375V90.82Z" fill="#E3E3E3"/>
<path d="M1008.92 109.94H1018.22V119.5H1008.92V109.94Z" fill="#E3E3E3"/>
<path d="M1013.57 105.16H1022.87V114.72H1013.57V105.16Z" fill="#E3E3E3"/>
<path d="M1018.22 100.38H1027.52V109.94H1018.22V100.38Z" fill="#E3E3E3"/>
<path d="M1022.87 95.6H1032.17V105.16H1022.87V95.6Z" fill="#E3E3E3"/>
<path d="M1027.52 90.82H1032.17V100.38H1027.52V90.82Z" fill="#E3E3E3"/>
<path d="M1087.96 105.16H1097.26V114.72H1087.96V105.16Z" fill="#E3E3E3"/>
<path d="M1092.61 100.38H1101.91V109.94H1092.61V100.38Z" fill="#E3E3E3"/>
<path d="M1097.26 95.6H1106.56V105.16H1097.26V95.6Z" fill="#E3E3E3"/>
<path d="M1101.91 90.82H1111.21V100.38H1101.91V90.82Z" fill="#E3E3E3"/>
<path d="M1125.16 90.82H1134.45V100.38H1125.16V90.82Z" fill="#E3E3E3"/>
<path d="M1129.8 86.04H1139.1V95.6H1129.8V86.04Z" fill="#E3E3E3"/>
<path d="M1134.45 81.26H1143.75V90.82H1134.45V81.26Z" fill="#E3E3E3"/>
<path d="M1139.1 76.48H1143.75V81.26H1139.1V76.48Z" fill="#E3E3E3"/>
<path d="M1143.75 81.26H1148.4V86.04H1143.75V81.26Z" fill="#E3E3E3"/>
<path d="M1143.75 95.6L1148.4 95.6V100.38H1143.75V95.6Z" fill="#E3E3E3"/>
<path d="M1101.91 71.7H1106.56V76.48H1101.91V71.7Z" fill="#E3E3E3"/>
<path d="M1083.31 76.48H1097.26V81.26H1083.31V76.48Z" fill="#E3E3E3"/>
<path d="M1078.66 81.26H1083.31V86.04H1078.66V81.26Z" fill="#E3E3E3"/>
<path d="M1115.86 66.92H1125.16V71.7H1115.86V66.92Z" fill="#E3E3E3"/>
<path d="M999.622 76.48H1004.27V81.26H999.622V76.48Z" fill="#E3E3E3"/>
<path d="M920.582 81.26H925.231V86.04H920.582V81.26Z" fill="#E3E3E3"/>
<path d="M948.478 90.82H953.128V95.6H948.478V90.82Z" fill="#E3E3E3"/>
<path d="M962.426 76.48H967.076V81.26H962.426V76.48Z" fill="#E3E3E3"/>
<path d="M967.076 81.26H971.725V86.04H967.076V81.26Z" fill="#E3E3E3"/>
<path d="M957.777 71.7H962.426V76.48H957.777V71.7Z" fill="#E3E3E3"/>
<path d="M855.49 4.78H864.789V9.56H855.49V4.78Z" fill="#E3E3E3"/>
<path d="M878.737 14.34H883.386V19.12H878.737V14.34Z" fill="#E3E3E3"/>
<path d="M850.841 9.56H855.49V14.34H850.841V9.56Z" fill="#E3E3E3"/>
<path d="M883.386 14.34H897.335V19.12H883.386V14.34Z" fill="#E3E3E3"/>
<path d="M892.685 19.12H897.335V23.9H892.685V19.12Z" fill="#E3E3E3"/>
<path d="M836.892 9.56H841.542V19.12H836.892V9.56Z" fill="#E3E3E3"/>
<path d="M799.697 4.78H804.347V9.56H799.697V4.78Z" fill="#E3E3E3"/>
<path d="M804.347 0H808.996V4.78H804.347V0Z" fill="#E3E3E3"/>
<path d="M785.749 14.34H795.048V19.12H785.749V14.34Z" fill="#E3E3E3"/>
<path d="M808.996 0H813.645V4.78H808.996V0Z" fill="#E3E3E3"/>
<path d="M734.606 4.78H739.255V9.56H734.606V4.78Z" fill="#E3E3E3"/>
<path d="M734.606 4.78H748.554V9.56H734.606V4.78Z" fill="#E3E3E3"/>
<path d="M725.307 9.56H729.956V14.34H725.307V9.56Z" fill="#E3E3E3"/>
<path d="M711.359 19.12H716.008V23.9H711.359V19.12Z" fill="#E3E3E3"/>
<path d="M706.709 23.9H711.359V28.68H706.709V23.9Z" fill="#E3E3E3"/>
<path d="M702.06 28.68H706.709V33.46H702.06V28.68Z" fill="#E3E3E3"/>
<path d="M697.41 33.46H702.06V38.24H697.41V33.46Z" fill="#E3E3E3"/>
<path d="M729.956 23.9H734.606V28.68H729.956V23.9Z" fill="#E3E3E3"/>
<path d="M725.307 19.12H729.956V23.9H725.307V19.12Z" fill="#E3E3E3"/>
<path d="M799.697 23.9H818.295V28.68H799.697V23.9Z" fill="#E3E3E3"/>
<path d="M571.877 38.24H576.526V43.02H571.877V38.24Z" fill="#E3E3E3"/>
<path d="M567.227 47.8H571.877V52.58H567.227V47.8Z" fill="#E3E3E3"/>
<path d="M562.578 62.14H567.227V71.7H562.578V62.14Z" fill="#E3E3E3"/>
<path d="M553.279 95.6H557.928V100.38H553.279V95.6Z" fill="#E3E3E3"/>
<path d="M557.928 90.82H562.578V95.6H557.928V90.82Z" fill="#E3E3E3"/>
<path d="M562.578 86.04H567.227V90.82H562.578V86.04Z" fill="#E3E3E3"/>
<path d="M571.877 105.16H576.526V109.94H571.877V105.16Z" fill="#E3E3E3"/>
<path d="M497.486 100.38H502.135V105.16H497.486V100.38Z" fill="#E3E3E3"/>
<path d="M502.135 95.6H506.785V100.38H502.135V95.6Z" fill="#E3E3E3"/>
<path d="M506.785 90.82H511.434V95.6H506.785V90.82Z" fill="#E3E3E3"/>
<path d="M488.187 71.7H497.486V76.48H488.187V71.7Z" fill="#E3E3E3"/>
<path d="M488.187 76.48H492.837V81.26H488.187V76.48Z" fill="#E3E3E3"/>
<path d="M483.538 81.26H488.187V86.04H483.538V81.26Z" fill="#E3E3E3"/>
<path d="M497.486 66.92H506.785V71.7H497.486V66.92Z" fill="#E3E3E3"/>
<path d="M446.343 9.56H450.992V14.34H446.343V9.56Z" fill="#E3E3E3"/>
<path d="M450.992 4.78H455.641V9.56H450.992V4.78Z" fill="#E3E3E3"/>
<path d="M330.108 86.04H334.757V95.6H330.108V86.04Z" fill="#E3E3E3"/>
<path d="M362.653 66.92H381.251V71.7H362.653V66.92Z" fill="#E3E3E3"/>
<path d="M353.355 76.48H358.004V81.26H353.355V76.48Z" fill="#E3E3E3"/>
<path d="M344.056 81.26H353.355V86.04H344.056V81.26Z" fill="#E3E3E3"/>
<path d="M362.653 90.82H367.303V95.6H362.653V90.82Z" fill="#E3E3E3"/>
<path d="M334.757 90.82H339.406V100.38H334.757V90.82Z" fill="#E3E3E3"/>
<path d="M385.9 95.6H390.55V100.38H385.9V95.6Z" fill="#E3E3E3"/>
<path d="M390.55 90.82H395.199V95.6H390.55V90.82Z" fill="#E3E3E3"/>
<path d="M395.199 86.04H399.849V90.82H395.199V86.04Z" fill="#E3E3E3"/>
<path d="M413.797 76.48H418.446V81.26H413.797V76.48Z" fill="#E3E3E3"/>
<path d="M423.096 81.26H427.745V95.6H423.096V81.26Z" fill="#E3E3E3"/>
<path d="M390.55 71.7H395.199V76.48H390.55V71.7Z" fill="#E3E3E3"/>
<path d="M339.406 90.82H344.056V95.6H339.406V90.82Z" fill="#E3E3E3"/>
<path d="M283.614 71.7H288.263V76.48H283.614V71.7Z" fill="#E3E3E3"/>
<path d="M288.263 66.92H297.562V71.7H288.263V66.92Z" fill="#E3E3E3"/>
<path d="M292.912 28.68H297.562V33.46H292.912V28.68Z" fill="#E3E3E3"/>
<path d="M302.211 52.58H306.861V57.36H302.211V52.58Z" fill="#E3E3E3"/>
<path d="M176.677 76.48H181.327V81.26H176.677V76.48Z" fill="#E3E3E3"/>
<path d="M223.171 76.48H227.821V81.26H223.171V76.48Z" fill="#E3E3E3"/>
<path d="M227.821 71.7H232.47V76.48H227.821V71.7Z" fill="#E3E3E3"/>
<path d="M232.47 66.92H241.769V71.7H232.47V66.92Z" fill="#E3E3E3"/>
<path d="M32.5458 19.12H41.8446V23.9H32.5458V19.12Z" fill="#E3E3E3"/>
<path d="M27.8964 23.9H32.5458V28.68L27.8964 28.68L27.8964 23.9Z" fill="#E3E3E3"/>
<path d="M65.0916 14.34L69.741 14.34V19.12L65.0916 19.12V14.34Z" fill="#E3E3E3"/>
<path d="M41.8446 23.9H46.494V28.68L41.8446 28.68V23.9Z" fill="#E3E3E3"/>
<path d="M37.1952 33.46H41.8446V38.24H37.1952V33.46Z" fill="#E3E3E3"/>
<path d="M41.8446 43.02H46.494V71.7H41.8446V43.02Z" fill="#E3E3E3"/>
<path d="M65.0916 52.58H69.741V57.36H65.0916V52.58Z" fill="#E3E3E3"/>
<path d="M79.0398 9.56L83.6892 9.56V14.34L79.0398 14.34V9.56Z" fill="#E3E3E3"/>
<path d="M88.3386 4.78H92.9881V9.56L88.3386 9.56V4.78Z" fill="#E3E3E3"/>
<path d="M97.6375 2.27928e-06H106.936V4.78H97.6375V2.27928e-06Z" fill="#E3E3E3"/>
<path d="M213.873 86.04H218.522V90.82H213.873V86.04Z" fill="#E3E3E3"/>
<path d="M450.992 19.12H455.641V33.46H450.992V19.12Z" fill="#E3E3E3"/>
<path d="M464.94 14.34H469.59V19.12H464.94V14.34Z" fill="#E3E3E3"/>
<path d="M455.641 33.46H460.291V47.8H455.641V33.46Z" fill="#E3E3E3"/>
<path d="M450.992 52.58H455.641V62.14H450.992V52.58Z" fill="#E3E3E3"/>
<path d="M460.291 28.68H464.94V33.46H460.291V28.68Z" fill="#E3E3E3"/>
<path d="M557.928 109.94H567.227V114.72H557.928V109.94Z" fill="#E3E3E3"/>
<path d="M543.98 86.04H548.63V95.6H543.98V86.04Z" fill="#E3E3E3"/>
<path d="M548.63 81.26H553.279V86.04H548.63V81.26Z" fill="#E3E3E3"/>
<path d="M585.825 76.48H595.124V81.26H585.825V76.48Z" fill="#E3E3E3"/>
<path d="M799.697 19.12H804.347V23.9H799.697V19.12Z" fill="#E3E3E3"/>
<path d="M925.231 76.48H929.88V81.26H925.231V76.48Z" fill="#E3E3E3"/>
<path d="M915.932 90.82H920.582V100.38H915.932V90.82Z" fill="#E3E3E3"/>
<path d="M901.984 109.94H906.633V114.72H901.984V109.94Z" fill="#E3E3E3"/>
<path d="M906.633 105.16H911.283V109.94H906.633V105.16Z" fill="#E3E3E3"/>
<path d="M939.179 71.7H943.829V76.48H939.179V71.7Z" fill="#E3E3E3"/>
<path d="M939.179 66.92H953.128V71.7H939.179V66.92Z" fill="#E3E3E3"/>
<path d="M1148.4 90.82H1157.7V95.6L1148.4 95.6V90.82Z" fill="#E3E3E3"/>
<path d="M1153.05 86.04H1167V90.82H1153.05V86.04Z" fill="#E3E3E3"/>
<path d="M1162.35 81.26H1167V86.04H1162.35V81.26Z" fill="#E3E3E3"/>
<path d="M1106.56 86.04H1111.21V95.6H1106.56V86.04Z" fill="#E3E3E3"/>
<path d="M1129.8 124.28H1143.75V172.08H1129.8V124.28Z" fill="#E3E3E3"/>
<path d="M1134.45 119.5H1143.75V129.06H1134.45V119.5Z" fill="#E3E3E3"/>
<path d="M1139.1 114.72H1148.4V124.28H1139.1V114.72Z" fill="#E3E3E3"/>
<path d="M1143.75 109.94H1162.35V124.28H1143.75V109.94Z" fill="#E3E3E3"/>
<path d="M1139.1 152.96H1157.7V167.3H1139.1V152.96Z" fill="#E3E3E3"/>
<path d="M1143.75 124.28H1153.05V152.96H1143.75V124.28Z" fill="#E3E3E3"/>
<path d="M1092.61 138.62H1111.21V162.52H1092.61V138.62Z" fill="#E3E3E3"/>
<path d="M1106.56 152.96H1125.16V172.08H1106.56V152.96Z" fill="#E3E3E3"/>
<path d="M1125.16 157.74H1129.8V172.08H1125.16V157.74Z" fill="#E3E3E3"/>
<path d="M1087.96 143.4H1092.61V157.74H1087.96V143.4Z" fill="#E3E3E3"/>
<path d="M1083.31 148.18H1087.96V157.74H1083.31V148.18Z" fill="#E3E3E3"/>
<path d="M1078.66 152.96H1083.31V162.52H1078.66V152.96Z" fill="#E3E3E3"/>
<path d="M1074.01 157.74H1078.66V167.3H1074.01V157.74Z" fill="#E3E3E3"/>
<path d="M1157.7 157.74H1162.35V167.3H1157.7V157.74Z" fill="#E3E3E3"/>
<path d="M1111.21 143.4H1115.86V152.96H1111.21V143.4Z" fill="#E3E3E3"/>
<path d="M1115.86 148.18H1120.51V152.96H1115.86V148.18Z" fill="#E3E3E3"/>
<path d="M1101.91 162.52H1106.56V167.3H1101.91V162.52Z" fill="#E3E3E3"/>
<path d="M1111.21 172.08H1125.16V176.86H1111.21V172.08Z" fill="#E3E3E3"/>
<path d="M1083.31 114.72H1092.61V119.5H1083.31V114.72Z" fill="#E3E3E3"/>
<path d="M1078.66 119.5H1087.96V124.28H1078.66V119.5Z" fill="#E3E3E3"/>
<path d="M1097.26 119.5H1106.56V124.28H1097.26V119.5Z" fill="#E3E3E3"/>
<path d="M1153.05 124.28H1157.7V129.06H1153.05V124.28Z" fill="#E3E3E3"/>
<path d="M1162.35 114.72H1167V119.5H1162.35V114.72Z" fill="#E3E3E3"/>
<path d="M1106.56 119.5H1115.86V129.06H1106.56V119.5Z" fill="#E3E3E3"/>
<path d="M1106.56 114.72H1111.21V119.5H1106.56V114.72Z" fill="#E3E3E3"/>
<path d="M1115.86 119.5H1135.15V124.28H1115.86V119.5Z" fill="#E3E3E3"/>
<path d="M1134.45 114.72H1144.45V119.5H1134.45V114.72Z" fill="#E3E3E3"/>
<path d="M1087.96 129.06H1097.26V133.84H1087.96V129.06Z" fill="#E3E3E3"/>
<path d="M1092.61 124.28H1106.56V133.84H1092.61V124.28Z" fill="#E3E3E3"/>
<path d="M1087.96 129.06H1097.26V133.84H1087.96V129.06Z" fill="#E3E3E3"/>
<path d="M1148.4 105.16L1153.05 105.16V114.72H1148.4V105.16Z" fill="#E3E3E3"/>
<path d="M1008.92 129.06H1032.17V172.08H1008.92V129.06Z" fill="#E3E3E3"/>
<path d="M1013.57 124.28H1022.87V133.84H1013.57V124.28Z" fill="#E3E3E3"/>
<path d="M1018.22 119.5H1027.52V129.06H1018.22V119.5Z" fill="#E3E3E3"/>
<path d="M1022.87 152.96H1041.47V176.86H1022.87V152.96Z" fill="#E3E3E3"/>
<path d="M1041.47 157.74H1046.12V167.3H1041.47V157.74Z" fill="#E3E3E3"/>
<path d="M1004.27 157.74H1008.92V167.3H1004.27V157.74Z" fill="#E3E3E3"/>
<path d="M1032.17 148.18H1036.82V152.96H1032.17V148.18Z" fill="#E3E3E3"/>
<path d="M1041.47 86.04H1046.12V90.82H1041.47V86.04Z" fill="#E3E3E3"/>
<path d="M1046.12 90.82H1050.77V95.6H1046.12V90.82Z" fill="#E3E3E3"/>
<path d="M1046.12 86.04H1050.77V90.82H1046.12V86.04Z" fill="#E3E3E3"/>
<path d="M1050.77 95.6H1060.06V100.38H1050.77V95.6Z" fill="#E3E3E3"/>
<path d="M1050.77 90.82H1055.41V95.6H1050.77V90.82Z" fill="#E3E3E3"/>
<path d="M1050.77 66.92H1055.41V71.7H1050.77V66.92Z" fill="#E3E3E3"/>
<path d="M994.972 81.26H999.622V86.04H994.972V81.26Z" fill="#E3E3E3"/>
<path d="M994.972 76.48H999.622V81.26H994.972V76.48Z" fill="#E3E3E3"/>
<path d="M1004.27 66.92H1008.92V71.7H1004.27V66.92Z" fill="#E3E3E3"/>
<path d="M1013.57 71.7H1018.22V76.48H1013.57V71.7Z" fill="#E3E3E3"/>
<path d="M1022.87 114.72H1032.17V124.28H1022.87V114.72Z" fill="#E3E3E3"/>
<path d="M1027.52 109.94H1032.17V119.5H1027.52V109.94Z" fill="#E3E3E3"/>
<path d="M934.53 109.94H939.179V119.5H934.53V109.94Z" fill="#E3E3E3"/>
<path d="M948.478 95.6H953.128V100.38H948.478V95.6Z" fill="#E3E3E3"/>
<path d="M953.128 90.82H957.777V95.6H953.128V90.82Z" fill="#E3E3E3"/>
<path d="M957.777 86.04H962.426V90.82H957.777V86.04Z" fill="#E3E3E3"/>
<path d="M962.426 81.26H967.076V86.04H962.426V81.26Z" fill="#E3E3E3"/>
<path d="M939.179 109.94H943.829V114.72H939.179V109.94Z" fill="#E3E3E3"/>
<path d="M762.502 71.7H776.45V124.28H762.502V71.7Z" fill="#E3E3E3"/>
<path d="M767.151 66.92H781.1V81.26H767.151V66.92Z" fill="#E3E3E3"/>
<path d="M706.709 90.82H711.359V100.38H706.709V90.82Z" fill="#E3E3E3"/>
<path d="M711.359 62.14H720.657V71.7H711.359V62.14Z" fill="#E3E3E3"/>
<path d="M716.008 57.36H725.307V66.92H716.008V57.36Z" fill="#E3E3E3"/>
<path d="M748.554 47.8H757.853V57.36H748.554V47.8Z" fill="#E3E3E3"/>
<path d="M753.203 43.02H762.502V52.58H753.203V43.02Z" fill="#E3E3E3"/>
<path d="M757.853 38.24H767.151V47.8H757.853V38.24Z" fill="#E3E3E3"/>
<path d="M762.502 33.46H771.801V43.02H762.502V33.46Z" fill="#E3E3E3"/>
<path d="M767.151 28.68H781.1V38.24H767.151V28.68Z" fill="#E3E3E3"/>
<path d="M567.227 109.94H576.526V119.5H567.227V109.94Z" fill="#E3E3E3"/>
<path d="M557.928 114.72H576.526V172.08H557.928V114.72Z" fill="#E3E3E3"/>
<path d="M557.928 105.16H562.578V109.94H557.928V105.16Z" fill="#E3E3E3"/>
<path d="M571.877 90.82H581.175V100.38H571.877V90.82Z" fill="#E3E3E3"/>
<path d="M576.526 157.74H590.474V172.08H576.526V157.74Z" fill="#E3E3E3"/>
<path d="M548.63 157.74H557.928V167.3H548.63V157.74Z" fill="#E3E3E3"/>
<path d="M553.279 152.96H557.928V157.74H553.279V152.96Z" fill="#E3E3E3"/>
<path d="M576.526 152.96H581.175V157.74H576.526V152.96Z" fill="#E3E3E3"/>
<path d="M567.227 172.08H585.825V176.86H567.227V172.08Z" fill="#E3E3E3"/>
<path d="M576.526 90.82H585.825V95.6H576.526V90.82Z" fill="#E3E3E3"/>
<path d="M497.486 114.72H506.785V205.54H497.486V114.72Z" fill="#E3E3E3"/>
<path d="M497.486 119.5H502.135V219.88H497.486V119.5Z" fill="#E3E3E3"/>
<path d="M502.135 109.94H511.434V191.2H502.135V109.94Z" fill="#E3E3E3"/>
<path d="M506.785 105.16H516.084V176.86H506.785V105.16Z" fill="#E3E3E3"/>
<path d="M511.434 100.38H520.733V172.08H511.434V100.38Z" fill="#E3E3E3"/>
<path d="M516.084 95.6H520.733V105.16H516.084V95.6Z" fill="#E3E3E3"/>
<path d="M492.837 195.98H497.486V224.66H492.837V195.98Z" fill="#E3E3E3"/>
<path d="M520.733 148.18H525.383V167.3H520.733V148.18Z" fill="#E3E3E3"/>
<path d="M525.383 152.96H530.032V162.52H525.383V152.96Z" fill="#E3E3E3"/>
<path d="M530.032 152.96H534.681V157.74H530.032V152.96Z" fill="#E3E3E3"/>
<path d="M390.55 119.5H399.849V186.42H390.55V119.5Z" fill="#E3E3E3"/>
<path d="M395.199 114.72H404.498V215.1H395.199V114.72Z" fill="#E3E3E3"/>
<path d="M399.849 109.94H409.147V210.32H399.849V109.94Z" fill="#E3E3E3"/>
<path d="M404.498 105.16H413.797V205.54H404.498V105.16Z" fill="#E3E3E3"/>
<path d="M344.056 129.06H353.355V167.3H344.056V129.06Z" fill="#E3E3E3"/>
<path d="M348.705 124.28H358.004V172.08H348.705V124.28Z" fill="#E3E3E3"/>
<path d="M353.355 119.5H362.653V172.08H353.355V119.5Z" fill="#E3E3E3"/>
<path d="M358.004 119.5H367.303V176.86H358.004V119.5Z" fill="#E3E3E3"/>
<path d="M358.004 114.72H367.303V124.28H358.004V114.72Z" fill="#E3E3E3"/>
<path d="M362.653 109.94H367.303V119.5H362.653V109.94Z" fill="#E3E3E3"/>
<path d="M204.574 86.04H209.223V90.82H204.574V86.04Z" fill="#E3E3E3"/>
<path d="M92.9881 43.02H102.287V52.58H92.9881V43.02Z" fill="#E3E3E3"/>
<path d="M97.6375 38.24H106.936V47.8H97.6375V38.24Z" fill="#E3E3E3"/>
<path d="M102.287 33.46H111.586V43.02H102.287V33.46Z" fill="#E3E3E3"/>
<path d="M88.3386 28.68H92.9881V33.46H88.3386V28.68Z" fill="#E3E3E3"/>
<path d="M92.9881 23.9H97.6375V28.68H92.9881V23.9Z" fill="#E3E3E3"/>
<path d="M97.6375 19.12H102.287V23.9H97.6375V19.12Z" fill="#E3E3E3"/>
<path d="M102.287 14.34H106.936V19.12H102.287V14.34Z" fill="#E3E3E3"/>
<path d="M106.936 9.56H111.586V14.34H106.936V9.56Z" fill="#E3E3E3"/>
<path d="M125.534 14.34L130.183 14.34V19.12H125.534V14.34Z" fill="#E3E3E3"/>
<path d="M134.833 4.78H139.482V9.56H134.833V4.78Z" fill="#E3E3E3"/>
<path d="M92.9881 66.92H102.287V119.5H92.9881V66.92Z" fill="#E3E3E3"/>
<path d="M97.6375 62.14H106.936V109.94H97.6375V62.14Z" fill="#E3E3E3"/>
<path d="M102.287 57.36H111.586V105.16L102.287 105.16V57.36Z" fill="#E3E3E3"/>
<path d="M134.833 33.46H144.131L144.131 43.02L134.833 43.02V33.46Z" fill="#E3E3E3"/>
<path d="M139.482 28.68L148.781 28.68V38.24L139.482 38.24V28.68Z" fill="#E3E3E3"/>
<path d="M144.131 23.9L153.43 23.9V33.46H144.131V23.9Z" fill="#E3E3E3"/>
<path d="M148.781 19.12L158.08 19.12V28.68L148.781 28.68V19.12Z" fill="#E3E3E3"/>
<path d="M41.8446 81.26H46.494V86.04H41.8446V81.26Z" fill="#E3E3E3"/>
<path d="M46.494 76.48H51.1434V81.26H46.494V76.48Z" fill="#E3E3E3"/>
<path d="M51.1434 71.7H55.7928V76.48H51.1434V71.7Z" fill="#E3E3E3"/>
<path d="M55.7928 66.92H60.4422V71.7H55.7928V66.92Z" fill="#E3E3E3"/>
<path d="M60.4422 62.14H65.0916V66.92H60.4422V62.14Z" fill="#E3E3E3"/>
<path d="M65.0916 57.36H69.741V62.14H65.0916V57.36Z" fill="#E3E3E3"/>
<path d="M18.5976 152.96H23.247V157.74H18.5976V152.96Z" fill="white"/>
<path d="M23.247 157.74H27.8964V162.52H23.247V157.74Z" fill="white"/>
<path d="M23.247 152.96H27.8964V157.74H23.247V152.96Z" fill="white"/>
<path d="M27.8964 157.74H32.5458V167.3H27.8964V157.74Z" fill="white"/>
<path d="M32.5458 162.52H37.1952V167.3H32.5458V162.52Z" fill="white"/>
<path d="M83.6892 138.62H88.3386V143.4H83.6892V138.62Z" fill="white"/>
<path d="M111.586 129.06H120.884V133.84H111.586V129.06Z" fill="white"/>
<path d="M116.235 124.28H120.884V129.06H116.235V124.28Z" fill="white"/>
<path d="M130.183 114.72H134.833V119.5H130.183V114.72Z" fill="white"/>
<path d="M134.833 114.72H139.482V124.28H134.833V114.72Z" fill="white"/>
<path d="M139.482 119.5H144.131V124.28H139.482V119.5Z" fill="white"/>
<path d="M130.183 114.72H134.833V119.5H130.183V114.72Z" fill="white"/>
<path d="M134.833 114.72H139.482V124.28H134.833V114.72Z" fill="white"/>
<path d="M139.482 119.5H144.131V124.28H139.482V119.5Z" fill="white"/>
<path d="M390.55 181.64H395.199V186.42H390.55V181.64Z" fill="white"/>
<path d="M395.199 181.64H399.849V191.2H395.199V181.64Z" fill="white"/>
<path d="M399.849 186.42H404.498V191.2H399.849V186.42Z" fill="white"/>
<path d="M446.343 162.52H450.992V167.3H446.343V162.52Z" fill="white"/>
<path d="M450.992 162.52H455.641V172.08H450.992V162.52Z" fill="white"/>
<path d="M455.641 167.3H460.291V172.08H455.641V167.3Z" fill="white"/>
<path d="M516.084 148.18H520.733V152.96H516.084V148.18Z" fill="white"/>
<path d="M520.733 148.18H525.383V157.74H520.733V148.18Z" fill="white"/>
<path d="M525.383 152.96H530.032V157.74H525.383V152.96Z" fill="white"/>
<path d="M553.279 162.52H557.928V167.3H553.279V162.52Z" fill="white"/>
<path d="M557.928 162.52H562.578V172.08H557.928V162.52Z" fill="white"/>
<path d="M562.578 167.3H567.227V172.08H562.578V167.3Z" fill="white"/>
<path d="M553.279 162.52H557.928V167.3H553.279V162.52Z" fill="white"/>
<path d="M557.928 162.52H562.578V172.08H557.928V162.52Z" fill="white"/>
<path d="M562.578 167.3H567.227V172.08H562.578V167.3Z" fill="white"/>
<path d="M692.761 143.4H697.41V148.18H692.761V143.4Z" fill="white"/>
<path d="M697.41 143.4H702.06V152.96H697.41V143.4Z" fill="white"/>
<path d="M702.06 148.18H706.709V157.74H702.06V148.18Z" fill="white"/>
<path d="M813.645 157.74H818.295V162.52H813.645V157.74Z" fill="white"/>
<path d="M818.295 157.74H822.944V167.3H818.295V157.74Z" fill="white"/>
<path d="M822.944 162.52H827.594V172.08H822.944V162.52Z" fill="white"/>
<path d="M334.757 191.2H339.406V200.76H334.757V191.2Z" fill="white"/>
<path d="M339.406 191.2H344.056V205.54H339.406V191.2Z" fill="white"/>
<path d="M344.056 200.76H348.705V210.32H344.056V200.76Z" fill="white"/>
<path d="M172.028 152.96H176.677V157.74H172.028V152.96Z" fill="white"/>
<path d="M176.677 152.96H181.327V162.52H176.677V152.96Z" fill="white"/>
<path d="M181.327 157.74H185.976V162.52H181.327V157.74Z" fill="white"/>
<path d="M181.327 162.52H185.976V167.3H181.327V162.52Z" fill="white"/>
<path d="M251.068 143.4H255.717V152.96H251.068V143.4Z" fill="white"/>
<path d="M255.717 148.18H260.367V152.96H255.717V148.18Z" fill="white"/>
<path d="M255.717 152.96H260.367V157.74H255.717V152.96Z" fill="white"/>
<path d="M464.94 109.94H469.59V119.5H464.94V109.94Z" fill="white"/>
<path d="M469.59 114.72H474.239V119.5H469.59V114.72Z" fill="white"/>
<path d="M469.59 119.5H474.239V124.28H469.59V119.5Z" fill="white"/>
<path d="M492.837 195.98H497.486V205.54H492.837V195.98Z" fill="white"/>
<path d="M497.486 200.76H502.135V205.54H497.486V200.76Z" fill="white"/>
<path d="M497.486 205.54H502.135V210.32H497.486V205.54Z" fill="white"/>
<path d="M827.594 66.92H832.243V76.48H827.594V66.92Z" fill="white"/>
<path d="M832.243 71.7H836.892V76.48H832.243V71.7Z" fill="white"/>
<path d="M832.243 76.48H836.892V81.26H832.243V76.48Z" fill="white"/>
<path d="M869.438 152.96H874.088V162.52H869.438V152.96Z" fill="white"/>
<path d="M874.088 157.74H878.737V162.52H874.088V157.74Z" fill="white"/>
<path d="M874.088 162.52H878.737V167.3H874.088V162.52Z" fill="white"/>
<path d="M911.283 157.74H915.932V167.3H911.283V157.74Z" fill="white"/>
<path d="M915.932 162.52H920.582V167.3H915.932V162.52Z" fill="white"/>
<path d="M915.932 167.3H920.582V172.08H915.932V167.3Z" fill="white"/>
<path d="M971.725 143.4H976.375V152.96H971.725V143.4Z" fill="white"/>
<path d="M976.375 148.18H981.024V152.96H976.375V148.18Z" fill="white"/>
<path d="M976.375 152.96H981.024V157.74H976.375V152.96Z" fill="white"/>
<path d="M1013.57 148.18H1018.22V157.74H1013.57V148.18Z" fill="white"/>
<path d="M1018.22 152.96H1022.87V157.74H1018.22V152.96Z" fill="white"/>
<path d="M1018.22 157.74H1022.87V162.52H1018.22V157.74Z" fill="white"/>
<path d="M1120.97 152.96H1125.62V162.52H1120.97V152.96Z" fill="white"/>
<path d="M1125.62 157.74H1130.27V162.52H1125.62V157.74Z" fill="white"/>
<path d="M1125.62 162.52H1130.27V167.3H1125.62V162.52Z" fill="white"/>
<path d="M1078.66 152.96H1083.31V162.52H1078.66V152.96Z" fill="white"/>
<path d="M1083.31 157.74H1087.96V162.52H1083.31V157.74Z" fill="white"/>
<path d="M1083.31 148.18H1087.96V152.96H1083.31V148.18Z" fill="white"/>
<path d="M1074.01 157.74H1078.66V167.3H1074.01V157.74Z" fill="white"/>
<path d="M288.263 143.4H292.912V148.18H288.263V143.4Z" fill="white"/>
<path d="M292.912 143.4H297.562V148.18H292.912V143.4Z" fill="white"/>
<path d="M292.912 148.18H297.562V152.96H292.912V148.18Z" fill="white"/>
</svg>
