<svg width="350" height="61" viewBox="0 0 350 61" fill="none" xmlns="http://www.w3.org/2000/svg">
<path d="M10 44V40.25H21.25V44H10ZM10 32.75V25.25H13.75V32.75H10ZM21.25 40.25V36.5H13.75V32.75H21.25V25.25H25V40.25H21.25ZM32.5 44V40.25H36.25V44H32.5ZM55 44V40.25H58.75V44H55ZM32.5 29V25.25H36.25V29H32.5ZM43.75 44V36.5H40V40.25H36.25V29H40V32.75H43.75V25.25H47.5V32.75H51.25V29H55V40.25H51.25V36.5H47.5V44H43.75ZM55 29V25.25H58.75V29H55ZM66.25 44V25.25H77.5V29H70V32.75H77.5V36.5H70V40.25H81.25V44H66.25ZM96.25 44V25.25H107.5V29H100V32.75H107.5V36.5H100V40.25H111.25V44H96.25ZM122.5 44V40.25H133.75V44H122.5ZM118.75 40.25V29H122.5V40.25H118.75ZM122.5 29V25.25H130V29H122.5ZM145 44V29H141.25V25.25H152.5V29H148.75V44H145ZM167.5 40.25V36.5H171.25V40.25H167.5ZM160 44V25.25H163.75V32.75H167.5V36.5H163.75V40.25H167.5V44H160ZM186.25 44V36.5H190V40.25H197.5V36.5H190V32.75H197.5V29H201.25V44H186.25ZM186.25 29V25.25H197.5V29H186.25ZM220 44V40.25H223.75V44H220ZM216.25 40.25V36.5H220V40.25H216.25ZM208.75 44V25.25H212.5V32.75H216.25V36.5H212.5V44H208.75ZM216.25 32.75V25.25H220V32.75H216.25ZM242.5 44V40.25H246.25V44H242.5ZM238.75 40.25V36.5H242.5V40.25H238.75ZM231.25 44V25.25H235V32.75H238.75V36.5H235V44H231.25ZM238.75 32.75V25.25H242.5V32.75H238.75ZM253.75 44V36.5H257.5V40.25H265V36.5H257.5V32.75H265V29H268.75V44H253.75ZM253.75 29V25.25H265V29H253.75ZM276.25 44V40.25H287.5V44H276.25ZM276.25 32.75V25.25H280V32.75H276.25ZM287.5 40.25V36.5H280V32.75H287.5V25.25H291.25V40.25H287.5ZM298.75 44V25.25H302.5V32.75H310V25.25H313.75V44H310V36.5H302.5V44H298.75ZM325 44V29H321.25V25.25H332.5V29H328.75V44H325Z" fill="#CDCDCD"/>
</svg>
