<svg width="328" height="80" viewBox="0 0 328 80" fill="none" xmlns="http://www.w3.org/2000/svg">
<g clip-path="url(#clip0_60_649)">
<rect x="8" y="8" width="8" height="8" fill="#CDCDCD"/>
<rect y="16" width="8" height="48" fill="#CDCDCD"/>
<rect x="320" y="16" width="8" height="48" fill="#CDCDCD"/>
<rect x="312" y="64" width="8" height="8" fill="#CDCDCD"/>
<rect x="8" y="64" width="8" height="8" fill="#CDCDCD"/>
<rect x="312" y="8" width="8" height="8" fill="#CDCDCD"/>
<rect x="16" y="72" width="296" height="8" fill="#CDCDCD"/>
<rect x="16" width="296" height="8" fill="#CDCDCD"/>
<path d="M53.25 49.25V38H57V49.25H53.25ZM42 56.75V34.25H53.25V38H45.75V49.25H53.25V53H45.75V56.75H42ZM64.5 53V34.25H75.75V38H68.25V41.75H75.75V45.5H68.25V49.25H79.5V53H64.5ZM87 53V34.25H98.25V38H90.75V53H87ZM105.75 53V34.25H109.5V45.5H113.25V49.25H109.5V53H105.75ZM117 53V45.5H113.25V41.75H117V34.25H120.75V53H117ZM132 53V49.25H143.25V53H132ZM128.25 49.25V38H132V49.25H128.25ZM132 38V34.25H139.5V38H132ZM154.5 53V38H150.75V34.25H162V38H158.25V53H154.5ZM180.75 49.25V38H184.5V49.25H180.75ZM169.5 56.75V34.25H180.75V38H173.25V49.25H180.75V53H173.25V56.75H169.5ZM192 53V45.5H195.75V49.25H203.25V45.5H195.75V41.75H203.25V38H207V53H192ZM192 38V34.25H203.25V38H192ZM229.5 56.75V53H233.25V56.75H229.5ZM214.5 49.25V34.25H218.25V49.25H214.5ZM218.25 53V49.25H225.75V34.25H229.5V53H218.25ZM240.75 53V34.25H244.5V45.5H248.25V49.25H244.5V53H240.75ZM252 53V45.5H248.25V41.75H252V34.25H255.75V53H252ZM263.25 53V45.5H267V53H263.25ZM274.5 53V45.5H267V38H270.75V41.75H274.5V38H270.75V34.25H278.25V53H274.5Z" fill="#CDCDCD"/>
</g>
<defs>
<clipPath id="clip0_60_649">
<rect width="328" height="80" fill="white"/>
</clipPath>
</defs>
</svg>
