<svg width="328" height="80" viewBox="0 0 328 80" fill="none" xmlns="http://www.w3.org/2000/svg">
<g clip-path="url(#clip0_32_448)">
<rect x="8" y="8" width="8" height="8" fill="white"/>
<rect y="16" width="8" height="48" fill="white"/>
<rect x="320" y="16" width="8" height="48" fill="white"/>
<rect x="312" y="64" width="8" height="8" fill="white"/>
<rect x="8" y="64" width="8" height="8" fill="white"/>
<rect x="312" y="8" width="8" height="8" fill="white"/>
<rect x="16" y="72" width="296" height="8" fill="white"/>
<rect x="16" width="296" height="8" fill="white"/>
<path d="M68.25 53V38H72V53H68.25ZM57 53V34.25H68.25V38H60.75V53H57ZM90.75 49.25V38H94.5V49.25H90.75ZM79.5 56.75V34.25H90.75V38H83.25V49.25H90.75V53H83.25V56.75H79.5ZM105.75 53V49.25H113.25V53H105.75ZM102 49.25V38H105.75V49.25H102ZM113.25 49.25V38H117V49.25H113.25ZM105.75 38V34.25H113.25V38H105.75ZM124.5 56.75V49.25H128.25V38H132V49.25H135.75V38H139.5V49.25H143.25V56.75H139.5V53H128.25V56.75H124.5ZM132 38V34.25H135.75V38H132ZM154.5 53V49.25H162V53H154.5ZM150.75 49.25V38H154.5V49.25H150.75ZM162 49.25V38H165.75V49.25H162ZM154.5 38V34.25H162V38H154.5ZM173.25 53V41.75H177V53H173.25ZM177 41.75V38H180.75V41.75H177ZM184.5 53V38H180.75V34.25H188.25V53H184.5ZM195.75 53V49.25H199.5V53H195.75ZM218.25 53V49.25H222V53H218.25ZM195.75 38V34.25H199.5V38H195.75ZM207 53V45.5H203.25V49.25H199.5V38H203.25V41.75H207V34.25H210.75V41.75H214.5V38H218.25V49.25H214.5V45.5H210.75V53H207ZM218.25 38V34.25H222V38H218.25ZM229.5 53V34.25H233.25V45.5H237V49.25H233.25V53H229.5ZM240.75 53V45.5H237V41.75H240.75V34.25H244.5V53H240.75ZM255.75 53V38H252V34.25H263.25V38H259.5V53H255.75ZM278.25 49.25V45.5H282V49.25H278.25ZM270.75 53V34.25H274.5V41.75H278.25V45.5H274.5V49.25H278.25V53H270.75Z" fill="white"/>
</g>
<defs>
<clipPath id="clip0_32_448">
<rect width="328" height="80" fill="white"/>
</clipPath>
</defs>
</svg>
