<svg width="104" height="56" viewBox="0 0 104 56" fill="none" xmlns="http://www.w3.org/2000/svg">
<rect x="16" y="8" width="72" height="40" fill="#D7D5D5"/>
<rect x="16" y="8" width="72" height="40" fill="#373737"/>
<rect x="8" y="16" width="88" height="24" fill="#D7D5D5"/>
<rect x="8" y="16" width="88" height="24" fill="#373737"/>
<rect y="16" width="8" height="24" fill="white"/>
<rect x="8" y="8" width="8" height="8" fill="white"/>
<rect x="16" y="48" width="72" height="8" fill="white"/>
<rect x="16" width="72" height="8" fill="white"/>
<rect x="8" y="40" width="8" height="8" fill="white"/>
<rect x="96" y="16" width="8" height="24" fill="white"/>
<rect x="88" y="8" width="8" height="8" fill="white"/>
<rect x="88" y="40" width="8" height="8" fill="white"/>
<rect x="16" y="8" width="24" height="8" fill="#D7D5D5"/>
<rect x="16" y="40" width="24" height="8" fill="#D7D5D5"/>
<rect x="40" y="16" width="8" height="24" fill="#D7D5D5"/>
<rect x="8" y="16" width="32" height="24" fill="#D7D5D5"/>
</svg>
